<svg width="137" height="137" viewBox="0 0 137 137" fill="none" xmlns="http://www.w3.org/2000/svg">
<rect width="137" height="137" rx="68.5" fill="white"/>
<g clip-path="url(#clip0_2017_5)">
<path fill-rule="evenodd" clip-rule="evenodd" d="M114.893 74.9649C114.34 74.8087 113.769 74.7294 113.194 74.7293C111.799 74.7276 110.445 75.1986 109.352 76.0655L98.3714 67.3469C98.7584 66.5196 98.9596 65.6176 98.9607 64.7043C98.9635 63.6627 98.7023 62.6373 98.2015 61.724L113.035 48.4054C114.075 49.1314 115.314 49.5195 116.582 49.5172C116.859 49.5163 117.135 49.4974 117.409 49.4605L120.242 56.8647C119.469 57.3957 118.825 58.0942 118.359 58.9083C117.893 59.7225 117.616 60.6313 117.55 61.5671C117.483 62.5029 117.629 63.4417 117.975 64.3135C118.322 65.1853 118.86 65.9678 119.551 66.6026L114.893 74.9666V74.9649ZM96.0029 116.054C96.0979 116.524 96.0873 117.01 95.9719 117.475C95.8565 117.941 95.6392 118.375 95.3356 118.746C95.032 119.118 94.6498 119.417 94.2164 119.623C93.7831 119.828 93.3095 119.935 92.8299 119.935H84.5802C83.8484 119.944 83.1358 119.701 82.5621 119.247C81.9884 118.793 81.5885 118.155 81.4298 117.44C80.886 115.164 80.2048 112.923 79.39 110.729C80.4365 109.944 81.2096 108.85 81.5997 107.601C81.9898 106.353 81.9771 105.013 81.5635 103.772C81.1498 102.531 80.3561 101.452 79.2949 100.687C78.2337 99.9217 76.9587 99.5101 75.6505 99.5102C75.6279 99.5102 75.6051 99.5102 75.5825 99.5123L73.4634 91.0179C73.9356 90.777 74.3738 90.4745 74.7664 90.1182L86.2016 98.0279C85.8307 98.9723 85.6962 99.9931 85.8099 101.001C85.9236 102.009 86.282 102.975 86.8539 103.813C87.4258 104.651 88.1939 105.336 89.0913 105.81C89.9887 106.283 90.9881 106.53 92.0028 106.529C92.4021 106.529 92.8005 106.49 93.1926 106.415C94.4015 109.543 95.3418 112.768 96.0034 116.055L96.0029 116.054ZM34.5149 74.9549C33.9768 74.182 33.272 73.5399 32.4525 73.076L35.5688 62.1155C35.6594 62.1201 35.7502 62.1223 35.8521 62.1223C37.1878 62.1236 38.488 61.6918 39.5577 60.8918L46.5836 66.7878C46.1417 67.6538 45.9125 68.6125 45.915 69.5847C45.9147 69.8768 45.9374 70.1686 45.983 70.4572L34.5149 74.9549ZM20.4177 48.7153L16.5874 59.6928C17.8856 60.5228 18.8308 61.8038 19.2409 63.2891C19.651 64.7744 19.497 66.3589 18.8086 67.7375L25.687 73.5101C26.7594 72.7064 28.0641 72.2736 29.4042 72.277C29.4947 72.277 29.5853 72.2806 29.6761 72.2839L32.8037 61.3235C31.3667 60.5242 30.3048 59.1883 29.8503 57.608C29.3958 56.0278 29.5858 54.3318 30.3786 52.8912L24.5767 47.6477C23.5418 48.3657 22.312 48.7501 21.0524 48.7491C20.8404 48.7492 20.6286 48.7383 20.4177 48.7162V48.7153ZM53.1223 24.7865C53.7526 25.427 54.5142 25.9234 55.3548 26.2413L53.5189 40.2196C51.986 40.3801 50.5669 41.1026 49.5352 42.2476C48.5036 43.3927 47.9325 44.8793 47.9322 46.4205C47.9287 46.9278 47.9895 47.4334 48.1134 47.9254L40.5662 51.8236C39.5667 50.6569 38.1705 49.9018 36.647 49.7041C35.1235 49.5063 33.5807 49.88 32.3165 50.7529L26.5144 45.5096C26.9246 44.7681 27.1776 43.9499 27.2576 43.1063C27.3375 42.2626 27.2427 41.4115 26.979 40.6061L53.1223 24.7865ZM63.3892 22.6378L91.13 26.298C91.25 27.4175 91.6688 28.4841 92.3425 29.3862L81.4863 42.3488C80.6251 41.9149 79.6742 41.6892 78.7099 41.6898C77.3721 41.6917 76.0701 42.1225 74.9952 42.919C73.9203 43.7155 73.1291 44.8356 72.7379 46.115L60.3065 45.3534C60.1173 44.2884 59.6558 43.2905 58.9668 42.4566C58.2777 41.6228 57.3846 40.9815 56.3743 40.5951L58.2102 26.6183C59.3561 26.4958 60.4459 26.0594 61.3597 25.3571C62.2735 24.6549 62.9757 23.7141 63.3889 22.6383L63.3892 22.6378ZM96.2748 59.5794L111.097 46.2608C110.593 45.3378 110.332 44.3021 110.338 43.2506C110.344 42.1991 110.617 41.1663 111.131 40.2492L100.83 30.8207C99.9161 31.4434 98.852 31.8104 97.7482 31.8838C96.6444 31.9571 95.541 31.734 94.5524 31.2377L83.6962 44.1984C84.5052 45.2723 84.9428 46.5803 84.9428 47.9249C84.9428 49.2694 84.5052 50.5775 83.6962 51.6514L89.9403 59.1261C90.9396 58.6258 92.0552 58.4039 93.1698 58.4837C94.2844 58.5635 95.357 58.9419 96.2748 59.5794ZM55.0708 52.5886L54.1077 63.667C54.766 63.8845 55.3827 64.2117 55.932 64.6346L73.0884 50.6407C72.8355 50.1183 72.6563 49.5634 72.5558 48.9918L60.1246 48.2302C59.78 49.3599 59.1224 50.3689 58.228 51.1402C57.3336 51.9116 56.2389 52.4138 55.0708 52.5886ZM48.4307 64.5803C49.2577 63.9671 50.2231 63.5673 51.2415 63.4164L52.2048 52.3382C51.1314 51.9837 50.1753 51.3427 49.4397 50.4843L41.8925 54.3836C42.02 54.8747 42.0846 55.38 42.0847 55.8875C42.0816 56.8589 41.8527 57.8164 41.4161 58.6843L48.4307 64.5803ZM66.9475 80.4358L57.6894 72.4504C58.145 71.564 58.382 70.5814 58.3805 69.5847C58.386 68.6428 58.1726 67.7125 57.7573 66.8671L74.9142 52.872C75.8405 53.5827 76.948 54.0185 78.1102 54.1297C79.2724 54.2409 80.4425 54.023 81.4867 53.501L87.7307 60.9744C87.0045 61.9488 86.579 63.1142 86.5065 64.3273C86.4339 65.5403 86.7175 66.7481 87.3223 67.8021L74.0301 80.2821C72.9746 79.5827 71.7307 79.2226 70.4649 79.25C69.199 79.2773 67.9718 79.6908 66.9475 80.4351V80.4358ZM107.743 83.9855C107.265 83.1238 106.998 82.161 106.965 81.1762C106.931 80.1913 107.132 79.2127 107.551 78.3205L96.5809 69.6015C95.5527 70.4122 94.2949 70.8779 92.9866 70.9323C91.6783 70.9866 90.3863 70.6268 89.2944 69.9042L76.0017 82.3841C76.5516 83.3243 76.8411 84.394 76.8404 85.4831C76.8382 86.2584 76.6922 87.0266 76.4096 87.7485L87.8448 95.6583C88.8805 94.7244 90.2 94.1658 91.5915 94.0723C92.9829 93.9788 94.3653 94.3558 95.5167 95.1427L107.745 83.9853L107.743 83.9855ZM123.767 55.7731C123.49 55.7735 123.213 55.7923 122.939 55.8296L120.095 48.4241C121.461 47.4939 122.402 46.059 122.71 44.4353C123.018 42.8115 122.669 41.1318 121.738 39.7657C120.808 38.3996 119.373 37.4589 117.75 37.1507C116.126 36.8425 114.446 37.1919 113.08 38.1221L102.78 28.6932C103.303 27.7691 103.577 26.7245 103.574 25.6624C103.574 24.205 103.064 22.7935 102.132 21.6734C101.199 20.5533 99.9038 19.7953 98.4705 19.5311C97.0373 19.267 95.5567 19.5134 94.2863 20.2275C93.0159 20.9417 92.0358 22.0784 91.5165 23.4402L63.763 19.7805C63.6721 18.9132 63.4003 18.0747 62.9651 17.319C62.5298 16.5634 61.9408 15.9075 61.2362 15.3938C60.5316 14.88 59.7271 14.5199 58.8745 14.3366C58.022 14.1533 57.1405 14.1509 56.287 14.3297C55.4335 14.5084 54.627 14.8643 53.9197 15.3743C53.2123 15.8842 52.6199 16.5369 52.1806 17.2902C51.7413 18.0435 51.465 18.8806 51.3695 19.7474C51.2741 20.6142 51.3615 21.4913 51.6263 22.3221L25.4833 38.1413C24.9067 37.5508 24.2177 37.0817 23.4569 36.7618C22.6961 36.4418 21.879 36.2774 21.0536 36.2783C19.7037 36.2747 18.3892 36.7099 17.308 37.5182C16.2269 38.3265 15.4377 39.4642 15.0592 40.76C14.6808 42.0558 14.7336 43.4394 15.2097 44.7026C15.6859 45.9657 16.5596 47.0399 17.6992 47.7635L13.8689 58.7398C13.665 58.7193 13.4497 58.708 13.2345 58.708C12.2473 58.7072 11.274 58.9407 10.3946 59.3895C9.51533 59.8382 8.75514 60.4894 8.17663 61.2893C7.59813 62.0893 7.21783 63.0151 7.06705 63.9908C6.91627 64.9664 6.99931 65.9639 7.30933 66.9011C7.61936 67.8384 8.1475 68.6887 8.85032 69.3819C9.55313 70.0752 10.4105 70.5917 11.3519 70.8889C12.2933 71.1861 13.2919 71.2555 14.2653 71.0914C15.2388 70.9273 16.1594 70.5344 16.9514 69.945L23.8298 75.7176C23.4072 76.5587 23.1806 77.4845 23.1669 78.4257C23.1532 79.3668 23.3528 80.2989 23.7506 81.1519C24.1485 82.0049 24.7343 82.7568 25.4642 83.3511C26.1941 83.9455 27.049 84.3668 27.965 84.5836C28.8809 84.8004 29.8341 84.807 30.7529 84.6029C31.6718 84.3989 32.5325 83.9894 33.2706 83.4052C34.0086 82.821 34.6048 82.0773 35.0144 81.2299C35.4241 80.3825 35.6365 79.4533 35.6358 78.512C35.6362 78.2194 35.6135 77.9273 35.5679 77.6383L47.0359 73.1406C47.5082 73.8214 48.1116 74.4011 48.8108 74.8458C49.51 75.2904 50.2909 75.591 51.1078 75.73C51.9246 75.869 52.761 75.8435 53.5679 75.6552C54.3748 75.4668 55.136 75.1193 55.8069 74.6329L65.0653 82.6176C64.5715 83.5672 64.3307 84.6281 64.3663 85.6978C64.4019 86.7676 64.7126 87.8101 65.2684 88.7248C65.8242 89.6395 66.6064 90.3955 67.5395 90.9199C68.4726 91.4443 69.5251 91.7193 70.5955 91.7184C70.6181 91.7184 70.6406 91.7163 70.6635 91.7163L72.7835 100.211C71.5436 100.853 70.5553 101.894 69.9771 103.165C69.3989 104.436 69.2642 105.865 69.5948 107.222C69.9253 108.579 70.7018 109.785 71.7999 110.648C72.8979 111.511 74.2539 111.98 75.6505 111.981C76.0191 111.98 76.3869 111.947 76.7498 111.882C77.4963 113.917 78.1206 115.994 78.6195 118.104C78.933 119.448 79.6932 120.647 80.7759 121.503C81.8585 122.36 83.1997 122.824 84.5802 122.82H92.8299C93.7366 122.82 94.6319 122.619 95.4512 122.23C96.2705 121.842 96.9931 121.276 97.5669 120.574C98.1406 119.872 98.5511 119.051 98.7687 118.171C98.9862 117.291 99.0053 116.373 98.8247 115.485C98.1223 111.984 97.1175 108.55 95.8218 105.222C97.0047 104.315 97.8208 103.011 98.1205 101.551C98.4201 100.09 98.1833 98.5708 97.4534 97.2707L109.692 86.1142C110.994 87.0036 112.584 87.3663 114.143 87.1295C115.702 86.8926 117.112 86.0737 118.091 84.8378C119.07 83.602 119.544 82.041 119.417 80.4696C119.291 78.8982 118.573 77.4332 117.409 76.3698L122.067 68.0066C122.924 68.2492 123.824 68.3053 124.705 68.171C125.586 68.0367 126.428 67.7151 127.174 67.2279C127.92 66.7407 128.553 66.0992 129.03 65.3467C129.507 64.5942 129.818 63.7481 129.94 62.8655C130.063 61.9829 129.995 61.0842 129.741 60.2301C129.487 59.376 129.053 58.5862 128.468 57.9141C127.883 57.2419 127.16 56.703 126.349 56.3336C125.539 55.9642 124.658 55.7729 123.767 55.7726L123.767 55.7731Z" fill="url(#paint0_linear_2017_5)"/>
</g>
<defs>
<linearGradient id="paint0_linear_2017_5" x1="68.4968" y1="14.1974" x2="68.4968" y2="122.82" gradientUnits="userSpaceOnUse">
<stop stop-color="white"/>
<stop offset="1" stop-color="#00DC9A"/>
</linearGradient>
<clipPath id="clip0_2017_5">
<rect width="123" height="123" fill="white" transform="translate(7 7)"/>
</clipPath>
</defs>
</svg>
